CATALOG 4974365811808
FILE "UEFA Euro 96 - England v6.200 (1996)(Sega Sports)(PAL)(M6)(Track 1 of 3)[!].iso" BINARY
  TRACK 01 MODE1/2048
    INDEX 01 00:00:00
FILE "UEFA Euro 96 - England v6.200 (1996)(Sega Sports)(PAL)(M6)(Track 2 of 3)[!].wav" WAVE
  TRACK 02 AUDIO
    PREGAP 00:02:00
    INDEX 01 00:00:00
FILE "UEFA Euro 96 - England v6.200 (1996)(Sega Sports)(PAL)(M6)(Track 3 of 3)[!].wav" WAVE
  TRACK 03 AUDIO
    INDEX 00 00:00:00
    INDEX 01 00:02:00
